<?xml version="1.0" encoding="UTF-8" standalone="no"?>
<!-- Created with Inkscape (http://www.inkscape.org/) -->
<svg xmlns:svg="http://www.w3.org/2000/svg" xmlns="http://www.w3.org/2000/svg" version="1.0" width="263.60501" height="245.80901" id="svg2">
  <defs id="defs4"/>
  <g id="g12">
    <path d="M 10.7578,188.618 L 237.531,188.618" id="path14" style="fill:none;stroke:#000000;stroke-width:1;stroke-linecap:round;stroke-linejoin:round"/>
    <path d="M 250.683,186.793 C 250.8,186.274 251.261,184.442 252.656,184.442 C 252.754,184.442 253.234,184.442 253.652,184.7 C 253.093,184.797 252.695,185.297 252.695,185.774 C 252.695,186.094 252.914,186.473 253.453,186.473 C 253.89,186.473 254.527,186.114 254.527,185.317 C 254.527,184.282 253.351,184 252.675,184 C 251.519,184 250.82,185.059 250.582,185.516 C 250.086,184.2 249.007,184 248.429,184 C 246.359,184 245.222,186.571 245.222,187.071 C 245.222,187.27 245.422,187.27 245.461,187.27 C 245.621,187.27 245.679,187.231 245.722,187.051 C 246.398,184.938 247.715,184.442 248.39,184.442 C 248.769,184.442 249.468,184.622 249.468,185.774 C 249.468,186.395 249.129,187.727 248.39,190.516 C 248.07,191.754 247.375,192.59 246.5,192.59 C 246.379,192.59 245.922,192.59 245.5,192.332 C 246,192.231 246.437,191.813 246.437,191.254 C 246.437,190.715 246,190.559 245.699,190.559 C 245.101,190.559 244.605,191.075 244.605,191.711 C 244.605,192.629 245.601,193.028 246.476,193.028 C 247.793,193.028 248.511,191.633 248.57,191.512 C 248.808,192.25 249.527,193.028 250.722,193.028 C 252.773,193.028 253.91,190.457 253.91,189.961 C 253.91,189.762 253.73,189.762 253.672,189.762 C 253.492,189.762 253.453,189.84 253.414,189.981 C 252.754,192.11 251.398,192.59 250.761,192.59 C 249.984,192.59 249.668,191.954 249.668,191.274 C 249.668,190.836 249.785,190.399 250.004,189.52 L 250.683,186.793 z" id="path16" style="fill:#000000;fill-rule:evenodd;stroke:none"/>
    <path d="M 67.4492,245.309 L 67.4492,18.536" id="path18" style="fill:none;stroke:#000000;stroke-width:1;stroke-linecap:round;stroke-linejoin:round"/>
    <path d="M 71.7109,1.21901 C 71.789,0.938004 71.789,0.899002 71.789,0.758011 C 71.789,0.399002 71.5117,0.223007 71.2148,0.223007 C 71.0117,0.223007 70.6953,0.340012 70.5156,0.641006 C 70.4765,0.738998 70.3164,1.356 70.2382,1.71501 C 70.0976,2.235 69.957,2.77 69.8398,3.30901 L 68.9414,6.895 C 68.8632,7.196 68.0039,8.59001 66.6914,8.59001 C 65.6718,8.59001 65.4531,7.711 65.4531,6.97701 C 65.4531,6.05901 65.7929,4.82501 66.4687,3.071 C 66.789,2.25401 66.8711,2.03601 66.8711,1.63701 C 66.8711,0.738998 66.2304,0 65.2343,0 C 63.3437,0 62.6054,2.89101 62.6054,3.071 C 62.6054,3.27 62.8046,3.27 62.8437,3.27 C 63.0429,3.27 63.0625,3.231 63.164,2.91101 C 63.6992,1.039 64.5,0.442001 65.1757,0.442001 C 65.3359,0.442001 65.6718,0.442001 65.6718,1.07901 C 65.6718,1.57501 65.4726,2.09401 65.3359,2.47301 C 64.539,4.586 64.1796,5.71901 64.1796,6.65701 C 64.1796,8.43001 65.4335,9.028 66.6093,9.028 C 67.3867,9.028 68.0664,8.688 68.6211,8.13301 C 68.3632,9.168 68.125,10.145 67.3281,11.2 C 66.8085,11.879 66.0507,12.454 65.1367,12.454 C 64.8554,12.454 63.9609,12.395 63.6211,11.618 C 63.9414,11.618 64.1992,11.618 64.4765,11.379 C 64.6757,11.2 64.875,10.942 64.875,10.563 C 64.875,9.946 64.3398,9.864 64.1406,9.864 C 63.6796,9.864 63.0234,10.184 63.0234,11.161 C 63.0234,12.157 63.8984,12.895 65.1367,12.895 C 67.1875,12.895 69.2421,11.079 69.7968,8.82901 L 71.7109,1.21901 z" id="path20" style="fill:#000000;fill-rule:evenodd;stroke:none"/>
    <path d="M 27.3632,228.704 L 187.715,68.352" id="path22" style="fill:none;stroke:#000000;stroke-width:1;stroke-linecap:round;stroke-linejoin:round"/>
    <path d="M 196.675,71.157 C 197.754,70 198.332,69.5 199.047,68.883 C 199.047,68.864 200.285,67.809 201,67.09 C 202.894,65.239 203.332,64.282 203.332,64.2 C 203.332,64 203.152,64 203.113,64 C 202.972,64 202.914,64.043 202.812,64.223 C 202.215,65.176 201.797,65.497 201.32,65.497 C 200.839,65.497 200.601,65.196 200.304,64.86 C 199.925,64.399 199.586,64 198.929,64 C 197.433,64 196.519,65.856 196.519,66.274 C 196.519,66.371 196.578,66.493 196.757,66.493 C 196.937,66.493 196.976,66.395 197.015,66.274 C 197.394,65.356 198.55,65.336 198.711,65.336 C 199.129,65.336 199.507,65.477 199.965,65.637 C 200.761,65.934 200.98,65.934 201.5,65.934 C 200.781,66.793 199.109,68.227 198.73,68.543 C 197.734,69.442 197.715,69.461 196.937,70.219 C 195.582,71.555 194.882,72.688 194.882,72.829 C 194.882,73.028 195.082,73.028 195.125,73.028 C 195.281,73.028 195.324,72.989 195.441,72.77 C 195.898,72.071 196.5,71.536 197.136,71.536 C 197.593,71.536 197.793,71.711 198.293,72.289 C 198.629,72.707 198.988,73.028 199.566,73.028 C 201.539,73.028 202.695,70.497 202.695,69.961 C 202.695,69.86 202.613,69.762 202.457,69.762 C 202.277,69.762 202.238,69.879 202.175,70.02 C 201.718,71.313 200.441,71.692 199.785,71.692 C 199.386,71.692 199.027,71.575 198.609,71.434 C 197.933,71.176 197.632,71.094 197.215,71.094 C 197.175,71.094 196.855,71.094 196.675,71.157 z" id="path24" style="fill:#000000;fill-rule:evenodd;stroke:none"/>
    <path d="M 71.4335,188.618 C 71.4335,187.559 71.0156,186.547 70.2695,185.797 C 69.5195,185.051 68.5078,184.629 67.4492,184.629 C 66.3945,184.629 65.3789,185.051 64.6328,185.797 C 63.8867,186.547 63.4648,187.559 63.4648,188.618 C 63.4648,189.672 63.8867,190.688 64.6328,191.434 C 65.3789,192.18 66.3945,192.602 67.4492,192.602 C 68.5078,192.602 69.5195,192.18 70.2695,191.434 C 71.0156,190.688 71.4335,189.672 71.4335,188.618" id="path26" style="fill:#000000;fill-rule:evenodd;stroke:none"/>
    <path d="M 124.953,65.301 L 124.953,160.27 L 67.4492,188.618" id="path28" style="fill:none;stroke:#000000;stroke-width:1;stroke-linejoin:round;stroke-dasharray:6, 3"/>
    <path d="M 67.4492,143.262 C 74.0742,143.262 80.6171,144.711 86.6171,147.512" id="path30" style="fill:none;stroke:#000000;stroke-width:1;stroke-linejoin:round"/>
    <path d="M 61.0937,139.848 C 61.0937,138.532 60.7343,135.762 58.7031,135.762 C 55.9335,135.762 52.8632,141.379 52.8632,145.942 C 52.8632,147.817 53.4414,150.028 55.2539,150.028 C 58.0664,150.028 61.0937,144.309 61.0937,139.848 z M 54.9765,142.575 C 55.3164,141.301 55.7148,139.707 56.5117,138.293 C 57.0468,137.317 57.7851,136.2 58.6835,136.2 C 59.6601,136.2 59.7773,137.477 59.7773,138.61 C 59.7773,139.586 59.6171,140.602 59.1406,142.575 L 54.9765,142.575 z M 58.9609,143.215 C 58.7421,144.129 58.3242,145.825 57.5664,147.258 C 56.8711,148.614 56.1132,149.59 55.2539,149.59 C 54.5976,149.59 54.1796,149.012 54.1796,147.161 C 54.1796,146.321 54.2968,145.164 54.8164,143.215 L 58.9609,143.215 z" id="path32" style="fill:#000000;fill-rule:evenodd;stroke:none"/>
    <path d="M 112.804,188.618 C 112.804,181.661 111.207,174.801 108.129,168.563" id="path34" style="fill:none;stroke:#000000;stroke-width:1;stroke-linejoin:round"/>
    <path d="M 115.734,195.457 C 115.734,195.418 115.793,195.2 115.793,195.18 C 115.793,195.161 115.793,194.981 115.554,194.981 C 115.355,194.981 115.336,195.04 115.257,195.379 L 114.101,199.981 C 110.933,200.082 108.004,202.731 108.004,205.442 C 108.004,207.336 109.398,208.911 111.828,209.047 C 111.672,209.665 111.531,210.305 111.371,210.922 C 111.132,211.856 110.933,212.614 110.933,212.676 C 110.933,212.875 111.07,212.895 111.172,212.895 C 111.269,212.895 111.312,212.875 111.371,212.813 C 111.41,212.774 111.531,212.297 111.589,212.016 C 111.847,211.04 112.089,210.043 112.347,209.047 C 115.554,208.95 118.445,206.258 118.445,203.59 C 118.445,202.016 117.386,200.18 114.617,199.981 L 115.734,195.457 z M 111.929,208.61 C 110.734,208.551 109.297,207.852 109.297,205.86 C 109.297,203.469 111.011,200.68 113.98,200.422 L 111.929,208.61 z M 114.5,200.422 C 116.011,200.5 117.148,201.418 117.148,203.168 C 117.148,205.52 115.437,208.372 112.445,208.61 L 114.5,200.422 z" id="path36" style="fill:#000000;fill-rule:evenodd;stroke:none"/>
    <path d="M 43.4921,239.997 L 139.328,34.473" id="path38" style="fill:none;stroke:#000000;stroke-width:1.79999995;stroke-linecap:round;stroke-linejoin:round"/>
    <path d="M 138.98,42.465 L 139.328,34.473 L 133.429,39.875" id="path40" style="fill:#000000;fill-rule:evenodd;stroke:none"/>
    <path d="M 138.98,42.465 L 139.328,34.473 L 133.429,39.875 L 138.98,42.465 z" id="path42" style="fill:none;stroke:#000000;stroke-width:1.79999995;stroke-linecap:round;stroke-linejoin:round"/>
    <path d="M 4.62109,184.59 C 4.62109,184.532 4.62109,184.493 4.28515,184.153 C 1.79296,181.641 1.15625,177.875 1.15625,174.829 C 1.15625,171.36 1.91406,167.895 4.36328,165.403 C 4.62109,165.165 4.62109,165.125 4.62109,165.063 C 4.62109,164.926 4.54296,164.864 4.42187,164.864 C 4.22265,164.864 2.42968,166.219 1.2539,168.75 C 0.23828,170.942 0,173.153 0,174.829 C 0,176.383 0.21875,178.793 1.3164,181.043 C 2.51172,183.497 4.22265,184.79 4.42187,184.79 C 4.54296,184.79 4.62109,184.731 4.62109,184.59 z" id="path44" style="fill:#000000;fill-rule:evenodd;stroke:none"/>
    <path d="M 12.6835,173.793 C 12.8007,173.274 13.2617,171.442 14.6562,171.442 C 14.7539,171.442 15.2343,171.442 15.6523,171.7 C 15.0937,171.797 14.6953,172.297 14.6953,172.774 C 14.6953,173.094 14.914,173.473 15.4531,173.473 C 15.8906,173.473 16.5273,173.114 16.5273,172.317 C 16.5273,171.282 15.3515,171 14.6757,171 C 13.5195,171 12.8203,172.059 12.582,172.516 C 12.0859,171.2 11.0078,171 10.4296,171 C 8.35934,171 7.22265,173.571 7.22265,174.071 C 7.22265,174.27 7.42187,174.27 7.46093,174.27 C 7.62109,174.27 7.67968,174.231 7.72265,174.051 C 8.39844,171.938 9.71484,171.442 10.3906,171.442 C 10.7695,171.442 11.4687,171.622 11.4687,172.774 C 11.4687,173.395 11.1289,174.727 10.3906,177.516 C 10.0703,178.754 9.37504,179.59 8.50004,179.59 C 8.37894,179.59 7.92187,179.59 7.5,179.332 C 8,179.231 8.43754,178.813 8.43754,178.254 C 8.43754,177.715 8,177.559 7.69922,177.559 C 7.10156,177.559 6.60546,178.075 6.60546,178.711 C 6.60546,179.629 7.60156,180.028 8.47654,180.028 C 9.79294,180.028 10.5117,178.633 10.5703,178.512 C 10.8085,179.25 11.5273,180.028 12.7226,180.028 C 14.7734,180.028 15.9101,177.457 15.9101,176.961 C 15.9101,176.762 15.7304,176.762 15.6718,176.762 C 15.4921,176.762 15.4531,176.84 15.414,176.981 C 14.7539,179.11 13.3984,179.59 12.7617,179.59 C 11.9843,179.59 11.6679,178.954 11.6679,178.274 C 11.6679,177.836 11.7851,177.399 12.0039,176.52 L 12.6835,173.793 z M 21.0703,179.79 C 21.0703,178.473 20.5742,177.696 19.7968,177.696 C 19.1406,177.696 18.7421,178.196 18.7421,178.754 C 18.7421,179.29 19.1406,179.809 19.7968,179.809 C 20.0351,179.809 20.2968,179.731 20.4961,179.551 C 20.5546,179.508 20.5742,179.489 20.5937,179.489 C 20.6132,179.489 20.6328,179.508 20.6328,179.79 C 20.6328,181.262 19.9375,182.457 19.2773,183.118 C 19.0585,183.336 19.0585,183.375 19.0585,183.434 C 19.0585,183.575 19.1601,183.653 19.2578,183.653 C 19.4765,183.653 21.0703,182.122 21.0703,179.79 z" id="path46" style="fill:#000000;fill-rule:evenodd;stroke:none"/>
    <path d="M 35.7109,172.219 C 35.789,171.938 35.789,171.899 35.789,171.758 C 35.789,171.399 35.5117,171.223 35.2148,171.223 C 35.0117,171.223 34.6953,171.34 34.5156,171.641 C 34.4765,171.739 34.3164,172.356 34.2382,172.715 C 34.0976,173.235 33.957,173.77 33.8398,174.309 L 32.9414,177.895 C 32.8632,178.196 32.0039,179.59 30.6914,179.59 C 29.6718,179.59 29.4531,178.711 29.4531,177.977 C 29.4531,177.059 29.7929,175.825 30.4687,174.071 C 30.789,173.254 30.8711,173.036 30.8711,172.637 C 30.8711,171.739 30.2304,171 29.2343,171 C 27.3437,171 26.6054,173.891 26.6054,174.071 C 26.6054,174.27 26.8046,174.27 26.8437,174.27 C 27.0429,174.27 27.0625,174.231 27.164,173.911 C 27.6992,172.04 28.5,171.442 29.1757,171.442 C 29.3359,171.442 29.6718,171.442 29.6718,172.079 C 29.6718,172.575 29.4726,173.094 29.3359,173.473 C 28.539,175.586 28.1796,176.719 28.1796,177.657 C 28.1796,179.43 29.4335,180.028 30.6093,180.028 C 31.3867,180.028 32.0664,179.688 32.6211,179.133 C 32.3632,180.168 32.125,181.145 31.3281,182.2 C 30.8085,182.879 30.0507,183.454 29.1367,183.454 C 28.8554,183.454 27.9609,183.395 27.6211,182.618 C 27.9414,182.618 28.1992,182.618 28.4765,182.379 C 28.6757,182.2 28.875,181.942 28.875,181.563 C 28.875,180.946 28.3398,180.864 28.1406,180.864 C 27.6796,180.864 27.0234,181.184 27.0234,182.161 C 27.0234,183.157 27.8984,183.895 29.1367,183.895 C 31.1875,183.895 33.2421,182.079 33.7968,179.829 L 35.7109,172.219 z" id="path48" style="fill:#000000;fill-rule:evenodd;stroke:none"/>
    <path d="M 40.0703,179.79 C 40.0703,178.473 39.5742,177.696 38.7968,177.696 C 38.1406,177.696 37.7421,178.196 37.7421,178.754 C 37.7421,179.29 38.1406,179.809 38.7968,179.809 C 39.0351,179.809 39.2968,179.731 39.4961,179.551 C 39.5546,179.508 39.5742,179.489 39.5937,179.489 C 39.6132,179.489 39.6328,179.508 39.6328,179.79 C 39.6328,181.262 38.9375,182.457 38.2773,183.118 C 38.0585,183.336 38.0585,183.375 38.0585,183.434 C 38.0585,183.575 38.1601,183.653 38.2578,183.653 C 38.4765,183.653 40.0703,182.122 40.0703,179.79 z" id="path50" style="fill:#000000;fill-rule:evenodd;stroke:none"/>
    <path d="M 47.6757,178.157 C 48.7539,177 49.332,176.5 50.0468,175.883 C 50.0468,175.864 51.2851,174.809 52,174.09 C 53.8945,172.239 54.332,171.282 54.332,171.2 C 54.332,171 54.1523,171 54.1132,171 C 53.9726,171 53.914,171.043 53.8125,171.223 C 53.2148,172.176 52.7968,172.497 52.3203,172.497 C 51.8398,172.497 51.6015,172.196 51.3046,171.86 C 50.9257,171.399 50.5859,171 49.9296,171 C 48.4335,171 47.5195,172.856 47.5195,173.274 C 47.5195,173.372 47.5781,173.493 47.7578,173.493 C 47.9375,173.493 47.9765,173.395 48.0156,173.274 C 48.3945,172.356 49.5507,172.336 49.7109,172.336 C 50.1289,172.336 50.5078,172.477 50.9648,172.637 C 51.7617,172.934 51.9804,172.934 52.5,172.934 C 51.7812,173.793 50.1093,175.227 49.7304,175.543 C 48.7343,176.442 48.7148,176.461 47.9375,177.219 C 46.582,178.555 45.8828,179.688 45.8828,179.829 C 45.8828,180.028 46.082,180.028 46.125,180.028 C 46.2812,180.028 46.3242,179.989 46.4414,179.77 C 46.8984,179.071 47.5,178.536 48.1367,178.536 C 48.5937,178.536 48.7929,178.711 49.2929,179.29 C 49.6289,179.707 49.9882,180.028 50.5664,180.028 C 52.539,180.028 53.6953,177.497 53.6953,176.961 C 53.6953,176.86 53.6132,176.762 53.457,176.762 C 53.2773,176.762 53.2382,176.879 53.1757,177.02 C 52.7187,178.313 51.4414,178.692 50.7851,178.692 C 50.3867,178.692 50.0273,178.575 49.6093,178.434 C 48.9335,178.176 48.6328,178.094 48.2148,178.094 C 48.1757,178.094 47.8554,178.094 47.6757,178.157 z" id="path52" style="fill:#000000;fill-rule:evenodd;stroke:none"/>
    <path d="M 60.7851,174.829 C 60.7851,173.274 60.5664,170.864 59.4687,168.61 C 58.2734,166.161 56.5625,164.864 56.3632,164.864 C 56.2421,164.864 56.164,164.946 56.164,165.063 C 56.164,165.125 56.164,165.165 56.5429,165.524 C 58.4961,167.497 59.6289,170.665 59.6289,174.829 C 59.6289,178.235 58.8945,181.743 56.4218,184.25 C 56.164,184.493 56.164,184.532 56.164,184.59 C 56.164,184.711 56.2421,184.79 56.3632,184.79 C 56.5625,184.79 58.3554,183.434 59.5312,180.907 C 60.5468,178.711 60.7851,176.5 60.7851,174.829 z" id="path54" style="fill:#000000;fill-rule:evenodd;stroke:none"/>
    <path d="M 152.48,27.754 C 152.66,27.036 152.718,26.817 154.589,26.817 C 155.187,26.817 155.347,26.817 155.347,26.438 C 155.347,26.2 155.129,26.2 155.031,26.2 L 149.429,26.2 C 149.293,26.2 149.05,26.2 149.05,26.598 C 149.05,26.817 149.23,26.817 149.609,26.817 C 149.648,26.817 150.027,26.817 150.367,26.856 C 150.726,26.899 150.906,26.918 150.906,27.176 C 150.906,27.254 150.886,27.317 150.824,27.555 L 148.156,38.254 C 147.957,39.032 147.918,39.192 146.343,39.192 C 146.004,39.192 145.804,39.192 145.804,39.59 C 145.804,39.809 145.984,39.809 146.343,39.809 L 155.566,39.809 C 156.047,39.809 156.066,39.809 156.183,39.469 L 157.757,35.164 C 157.839,34.946 157.839,34.907 157.839,34.887 C 157.839,34.809 157.781,34.668 157.601,34.668 C 157.422,34.668 157.402,34.766 157.261,35.086 C 156.586,36.918 155.707,39.192 152.261,39.192 L 150.386,39.192 C 150.109,39.192 150.07,39.192 149.949,39.172 C 149.75,39.153 149.691,39.133 149.691,38.973 C 149.691,38.911 149.691,38.871 149.789,38.512 L 152.48,27.754 z" id="path56" style="fill:#000000;fill-rule:evenodd;stroke:none"/>
    <path d="M 165.621,44.59 C 165.621,44.532 165.621,44.493 165.285,44.153 C 162.793,41.641 162.156,37.875 162.156,34.829 C 162.156,31.36 162.914,27.895 165.363,25.403 C 165.621,25.164 165.621,25.125 165.621,25.063 C 165.621,24.926 165.543,24.864 165.422,24.864 C 165.222,24.864 163.429,26.219 162.254,28.75 C 161.238,30.942 161,33.153 161,34.829 C 161,36.383 161.218,38.793 162.316,41.043 C 163.511,43.497 165.222,44.789 165.422,44.789 C 165.543,44.789 165.621,44.731 165.621,44.59 z" id="path58" style="fill:#000000;fill-rule:evenodd;stroke:none"/>
    <path d="M 173.683,33.793 C 173.8,33.274 174.261,31.442 175.656,31.442 C 175.754,31.442 176.234,31.442 176.652,31.7 C 176.093,31.797 175.695,32.297 175.695,32.774 C 175.695,33.094 175.914,33.473 176.453,33.473 C 176.89,33.473 177.527,33.114 177.527,32.317 C 177.527,31.282 176.351,31 175.675,31 C 174.519,31 173.82,32.059 173.582,32.516 C 173.086,31.2 172.007,31 171.429,31 C 169.359,31 168.222,33.571 168.222,34.071 C 168.222,34.27 168.422,34.27 168.461,34.27 C 168.621,34.27 168.679,34.231 168.722,34.051 C 169.398,31.938 170.715,31.442 171.39,31.442 C 171.769,31.442 172.468,31.621 172.468,32.774 C 172.468,33.395 172.129,34.727 171.39,37.516 C 171.07,38.754 170.375,39.59 169.5,39.59 C 169.379,39.59 168.922,39.59 168.5,39.332 C 169,39.231 169.437,38.813 169.437,38.254 C 169.437,37.715 169,37.559 168.699,37.559 C 168.101,37.559 167.605,38.075 167.605,38.711 C 167.605,39.629 168.601,40.028 169.476,40.028 C 170.793,40.028 171.511,38.633 171.57,38.512 C 171.808,39.25 172.527,40.028 173.722,40.028 C 175.773,40.028 176.91,37.457 176.91,36.961 C 176.91,36.762 176.73,36.762 176.672,36.762 C 176.492,36.762 176.453,36.84 176.414,36.981 C 175.754,39.11 174.398,39.59 173.761,39.59 C 172.984,39.59 172.668,38.954 172.668,38.274 C 172.668,37.836 172.785,37.399 173.004,36.52 L 173.683,33.793 z M 182.07,39.789 C 182.07,38.473 181.574,37.696 180.797,37.696 C 180.14,37.696 179.742,38.196 179.742,38.754 C 179.742,39.289 180.14,39.809 180.797,39.809 C 181.035,39.809 181.297,39.731 181.496,39.551 C 181.554,39.508 181.574,39.489 181.593,39.489 C 181.613,39.489 181.632,39.508 181.632,39.789 C 181.632,41.262 180.937,42.457 180.277,43.118 C 180.058,43.336 180.058,43.375 180.058,43.434 C 180.058,43.575 180.16,43.653 180.257,43.653 C 180.476,43.653 182.07,42.121 182.07,39.789 z" id="path60" style="fill:#000000;fill-rule:evenodd;stroke:none"/>
    <path d="M 196.711,32.219 C 196.789,31.938 196.789,31.899 196.789,31.758 C 196.789,31.399 196.511,31.223 196.215,31.223 C 196.011,31.223 195.695,31.34 195.515,31.641 C 195.476,31.739 195.316,32.356 195.238,32.715 C 195.097,33.235 194.957,33.77 194.839,34.309 L 193.941,37.895 C 193.863,38.196 193.004,39.59 191.691,39.59 C 190.672,39.59 190.453,38.711 190.453,37.977 C 190.453,37.059 190.793,35.825 191.468,34.071 C 191.789,33.254 191.871,33.036 191.871,32.637 C 191.871,31.739 191.23,31 190.234,31 C 188.343,31 187.605,33.891 187.605,34.071 C 187.605,34.27 187.804,34.27 187.843,34.27 C 188.043,34.27 188.062,34.231 188.164,33.911 C 188.699,32.039 189.5,31.442 190.175,31.442 C 190.336,31.442 190.672,31.442 190.672,32.079 C 190.672,32.575 190.472,33.094 190.336,33.473 C 189.539,35.586 189.179,36.719 189.179,37.657 C 189.179,39.43 190.433,40.028 191.609,40.028 C 192.386,40.028 193.066,39.688 193.621,39.133 C 193.363,40.168 193.125,41.145 192.328,42.2 C 191.808,42.879 191.05,43.454 190.136,43.454 C 189.855,43.454 188.961,43.395 188.621,42.618 C 188.941,42.618 189.199,42.618 189.476,42.379 C 189.675,42.2 189.875,41.942 189.875,41.563 C 189.875,40.946 189.339,40.864 189.14,40.864 C 188.679,40.864 188.023,41.184 188.023,42.161 C 188.023,43.157 188.898,43.895 190.136,43.895 C 192.187,43.895 194.242,42.079 194.797,39.829 L 196.711,32.219 z" id="path62" style="fill:#000000;fill-rule:evenodd;stroke:none"/>
    <path d="M 201.07,39.789 C 201.07,38.473 200.574,37.696 199.797,37.696 C 199.14,37.696 198.742,38.196 198.742,38.754 C 198.742,39.289 199.14,39.809 199.797,39.809 C 200.035,39.809 200.297,39.731 200.496,39.551 C 200.554,39.508 200.574,39.489 200.593,39.489 C 200.613,39.489 200.632,39.508 200.632,39.789 C 200.632,41.262 199.937,42.457 199.277,43.118 C 199.058,43.336 199.058,43.375 199.058,43.434 C 199.058,43.575 199.16,43.653 199.257,43.653 C 199.476,43.653 201.07,42.121 201.07,39.789 z" id="path64" style="fill:#000000;fill-rule:evenodd;stroke:none"/>
    <path d="M 208.675,38.157 C 209.754,37 210.332,36.5 211.047,35.883 C 211.047,35.864 212.285,34.809 213,34.09 C 214.894,32.239 215.332,31.282 215.332,31.2 C 215.332,31 215.152,31 215.113,31 C 214.972,31 214.914,31.043 214.812,31.223 C 214.215,32.176 213.797,32.497 213.32,32.497 C 212.839,32.497 212.601,32.196 212.304,31.86 C 211.925,31.399 211.586,31 210.929,31 C 209.433,31 208.519,32.856 208.519,33.274 C 208.519,33.371 208.578,33.493 208.757,33.493 C 208.937,33.493 208.976,33.395 209.015,33.274 C 209.394,32.356 210.55,32.336 210.711,32.336 C 211.129,32.336 211.507,32.477 211.965,32.637 C 212.761,32.934 212.98,32.934 213.5,32.934 C 212.781,33.793 211.109,35.227 210.73,35.543 C 209.734,36.442 209.715,36.461 208.937,37.219 C 207.582,38.555 206.882,39.688 206.882,39.829 C 206.882,40.028 207.082,40.028 207.125,40.028 C 207.281,40.028 207.324,39.989 207.441,39.77 C 207.898,39.071 208.5,38.536 209.136,38.536 C 209.593,38.536 209.793,38.711 210.293,39.289 C 210.629,39.707 210.988,40.028 211.566,40.028 C 213.539,40.028 214.695,37.497 214.695,36.961 C 214.695,36.86 214.613,36.762 214.457,36.762 C 214.277,36.762 214.238,36.879 214.175,37.02 C 213.718,38.313 212.441,38.692 211.785,38.692 C 211.386,38.692 211.027,38.575 210.609,38.434 C 209.933,38.176 209.632,38.094 209.215,38.094 C 209.175,38.094 208.855,38.094 208.675,38.157 z" id="path66" style="fill:#000000;fill-rule:evenodd;stroke:none"/>
    <path d="M 220.07,39.789 C 220.07,38.473 219.574,37.696 218.797,37.696 C 218.14,37.696 217.742,38.196 217.742,38.754 C 217.742,39.289 218.14,39.809 218.797,39.809 C 219.035,39.809 219.297,39.731 219.496,39.551 C 219.554,39.508 219.574,39.489 219.593,39.489 C 219.613,39.489 219.632,39.508 219.632,39.789 C 219.632,41.262 218.937,42.457 218.277,43.118 C 218.058,43.336 218.058,43.375 218.058,43.434 C 218.058,43.575 218.16,43.653 218.257,43.653 C 218.476,43.653 220.07,42.121 220.07,39.789 z" id="path68" style="fill:#000000;fill-rule:evenodd;stroke:none"/>
    <path d="M 234.093,29.848 C 234.093,28.532 233.734,25.762 231.703,25.762 C 228.933,25.762 225.863,31.379 225.863,35.942 C 225.863,37.817 226.441,40.028 228.254,40.028 C 231.066,40.028 234.093,34.309 234.093,29.848 z M 227.976,32.575 C 228.316,31.301 228.715,29.707 229.511,28.293 C 230.047,27.317 230.785,26.2 231.683,26.2 C 232.66,26.2 232.777,27.477 232.777,28.61 C 232.777,29.586 232.617,30.602 232.14,32.575 L 227.976,32.575 z M 231.961,33.215 C 231.742,34.129 231.324,35.825 230.566,37.258 C 229.871,38.614 229.113,39.59 228.254,39.59 C 227.597,39.59 227.179,39.012 227.179,37.161 C 227.179,36.321 227.297,35.164 227.816,33.215 L 231.961,33.215 z" id="path70" style="fill:#000000;fill-rule:evenodd;stroke:none"/>
    <path d="M 239.07,39.789 C 239.07,38.473 238.574,37.696 237.797,37.696 C 237.14,37.696 236.742,38.196 236.742,38.754 C 236.742,39.289 237.14,39.809 237.797,39.809 C 238.035,39.809 238.297,39.731 238.496,39.551 C 238.554,39.508 238.574,39.489 238.593,39.489 C 238.613,39.489 238.632,39.508 238.632,39.789 C 238.632,41.262 237.937,42.457 237.277,43.118 C 237.058,43.336 237.058,43.375 237.058,43.434 C 237.058,43.575 237.16,43.653 237.257,43.653 C 237.476,43.653 239.07,42.121 239.07,39.789 z" id="path72" style="fill:#000000;fill-rule:evenodd;stroke:none"/>
    <path d="M 252.734,26.457 C 252.734,26.418 252.793,26.2 252.793,26.18 C 252.793,26.161 252.793,25.981 252.554,25.981 C 252.355,25.981 252.336,26.039 252.257,26.379 L 251.101,30.981 C 247.933,31.082 245.004,33.731 245.004,36.442 C 245.004,38.336 246.398,39.911 248.828,40.047 C 248.672,40.664 248.531,41.305 248.371,41.922 C 248.132,42.856 247.933,43.614 247.933,43.676 C 247.933,43.875 248.07,43.895 248.172,43.895 C 248.269,43.895 248.312,43.875 248.371,43.813 C 248.41,43.774 248.531,43.297 248.589,43.016 C 248.847,42.039 249.089,41.043 249.347,40.047 C 252.554,39.95 255.445,37.258 255.445,34.59 C 255.445,33.016 254.386,31.18 251.617,30.981 L 252.734,26.457 z M 248.929,39.61 C 247.734,39.551 246.297,38.852 246.297,36.86 C 246.297,34.469 248.011,31.68 250.98,31.422 L 248.929,39.61 z M 251.5,31.422 C 253.011,31.5 254.148,32.418 254.148,34.168 C 254.148,36.52 252.437,39.371 249.445,39.61 L 251.5,31.422 z" id="path74" style="fill:#000000;fill-rule:evenodd;stroke:none"/>
    <path d="M 261.785,34.829 C 261.785,33.274 261.566,30.864 260.468,28.61 C 259.273,26.161 257.562,24.864 257.363,24.864 C 257.242,24.864 257.164,24.946 257.164,25.063 C 257.164,25.125 257.164,25.164 257.543,25.524 C 259.496,27.497 260.629,30.664 260.629,34.829 C 260.629,38.235 259.894,41.743 257.422,44.25 C 257.164,44.493 257.164,44.532 257.164,44.59 C 257.164,44.711 257.242,44.789 257.363,44.789 C 257.562,44.789 259.355,43.434 260.531,40.907 C 261.547,38.711 261.785,36.5 261.785,34.829 z" id="path76" style="fill:#000000;fill-rule:evenodd;stroke:none"/>
  </g>
</svg>